<svg xmlns="http://www.w3.org/2000/svg" xmlns:xlink="http://www.w3.org/1999/xlink" width="54.79" height="54.79" viewBox="0 0 54.79 54.79"><defs><style>.a{fill:url(#a);}.b{fill:url(#b);}.c{fill:url(#c);}.d{fill:url(#d);}.e{fill:url(#e);}.f{fill:url(#f);}.g{fill:url(#g);}.h{fill:url(#h);}.i{fill:url(#i);}.j{fill:url(#j);}.k{fill:url(#k);}.l{fill:url(#l);}.m{fill:url(#m);}.n{fill:url(#n);}</style><linearGradient id="a" x1="0.074" y1="0.075" x2="0.624" y2="0.855" gradientUnits="objectBoundingBox"><stop offset="0" stop-color="#bce097"/><stop offset="1" stop-color="#7dc03a"/></linearGradient><linearGradient id="b" x1="0.097" y1="0.5" x2="0.528" y2="0.5" gradientUnits="objectBoundingBox"><stop offset="0" stop-color="#8cc951" stop-opacity="0"/><stop offset="1" stop-color="#3e6e66"/></linearGradient><linearGradient id="c" x1="0.36" y1="0.122" x2="0.945" y2="0.952" xlink:href="#a"/><linearGradient id="d" x1="0.913" y1="0.5" x2="0.464" y2="0.5" xlink:href="#b"/><linearGradient id="e" x1="0.132" y1="0.132" x2="0.859" y2="0.859" gradientUnits="objectBoundingBox"><stop offset="0" stop-color="#76ccf8"/><stop offset="0.833" stop-color="#518ef8"/><stop offset="1" stop-color="#4981f8"/></linearGradient><linearGradient id="f" x1="0.529" y1="0.793" x2="-0.288" y2="-0.024" gradientUnits="objectBoundingBox"><stop offset="0" stop-color="#4071f7" stop-opacity="0"/><stop offset="1" stop-color="#30569f"/></linearGradient><linearGradient id="g" x1="1.025" y1="1.067" x2="0.121" y2="0.145" xlink:href="#f"/><linearGradient id="h" x1="0.432" y1="0.484" x2="0.794" y2="0.864" gradientUnits="objectBoundingBox"><stop offset="0" stop-color="#eef4ff"/><stop offset="1" stop-color="#cfe7fd"/></linearGradient><linearGradient id="i" x1="0.577" y1="0.781" x2="-0.232" y2="-0.071" gradientUnits="objectBoundingBox"><stop offset="0" stop-color="#8aaadc" stop-opacity="0"/><stop offset="1" stop-color="#8aaadc"/></linearGradient><linearGradient id="j" x1="0.5" y1="0.383" x2="0.5" y2="1" xlink:href="#f"/><linearGradient id="k" x1="0.132" y1="0.132" x2="0.859" y2="0.859" xlink:href="#h"/><linearGradient id="l" x1="0.5" y1="0.383" x2="0.5" y2="1" xlink:href="#i"/><linearGradient id="m" x1="1.318" y1="0.999" x2="0.253" y2="0.46" xlink:href="#i"/><linearGradient id="n" x1="0.08" y1="0.295" x2="0.668" y2="0.758" xlink:href="#e"/></defs><path class="a" d="M26.153,43.472a2.573,2.573,0,0,0-2.611-.621,9.552,9.552,0,0,1-10.119-2.823l1.342-.869a1.289,1.289,0,0,0-.156-2.251L7.588,33.636a1.289,1.289,0,0,0-1.834,1.187v7.745a1.375,1.375,0,0,0,2.1,1.064l1.31-.848a14.51,14.51,0,0,0,15.988,4.928,2.557,2.557,0,0,0,1-4.239Z" transform="translate(0.309 1.798)"/><path class="b" d="M25.641,43.04a2.573,2.573,0,0,0-2.611-.621,9.545,9.545,0,0,1-7.736-.851v5.578a14.029,14.029,0,0,0,4.409.843,14.662,14.662,0,0,0,4.939-.71,2.557,2.557,0,0,0,1-4.239Z" transform="translate(0.821 2.23)"/><path class="c" d="M26.924,9.288a2.573,2.573,0,0,0,2.611.621,9.552,9.552,0,0,1,10.119,2.823l-1.342.869a1.289,1.289,0,0,0,.156,2.251l7.021,3.271a1.289,1.289,0,0,0,1.834-1.187V10.192a1.375,1.375,0,0,0-2.1-1.064l-1.31.848A14.51,14.51,0,0,0,27.923,5.048a2.557,2.557,0,0,0-1,4.239Z" transform="translate(1.404 0.232)"/><path class="d" d="M37.271,5.182a14.029,14.029,0,0,0-4.409-.843,14.662,14.662,0,0,0-4.939.71,2.56,2.56,0,0,0,1.612,4.86,9.545,9.545,0,0,1,7.736.851V5.182Z" transform="translate(1.404 0.232)"/><g transform="translate(21.594 21.594)"><path class="e" d="M46.752,53.69H27.432a6.938,6.938,0,0,1-6.938-6.938V27.432a6.938,6.938,0,0,1,6.938-6.938h19.32a6.938,6.938,0,0,1,6.938,6.938v19.32A6.938,6.938,0,0,1,46.752,53.69Z" transform="translate(-20.494 -20.494)"/><path class="f" d="M53.69,42.088v4.665a6.937,6.937,0,0,1-6.938,6.938H27.432a6.937,6.937,0,0,1-6.938-6.938V27.432a6.937,6.937,0,0,1,6.938-6.938H32.1Z" transform="translate(-20.494 -20.494)"/><path class="g" d="M46.439,53.35a6.938,6.938,0,0,0,6.938-6.938V35.97l-6.208-6.208a1.609,1.609,0,0,0-1.348-.73h-6.1c-.028-.021-1.487-1.463-1.487-1.463a1.611,1.611,0,0,0-2.96.881v.582H27.951a1.611,1.611,0,0,0-.881,2.96L31.2,36.14a12.929,12.929,0,0,0,3.027,4.941,21.927,21.927,0,0,1-6.615,2.613,1.611,1.611,0,0,0-.539,2.923L33.8,53.35Z" transform="translate(-20.181 -20.154)"/><path class="h" d="M46.062,43.592a21.928,21.928,0,0,1-6.619-2.615,13.093,13.093,0,0,0,3.713-8.824h2.563a1.611,1.611,0,1,0,0-3.223H38.4v-.582a1.611,1.611,0,1,0-3.223,0v.582H27.849a1.611,1.611,0,0,0,0,3.223H39.932a9.854,9.854,0,0,1-3.149,6.917,9.732,9.732,0,0,1-2.7-4.261,1.612,1.612,0,1,0-3.075.967,12.939,12.939,0,0,0,3.113,5.2,21.927,21.927,0,0,1-6.615,2.613,1.612,1.612,0,1,0,.686,3.149,25.12,25.12,0,0,0,8.592-3.63,25.122,25.122,0,0,0,8.592,3.63,1.612,1.612,0,0,0,.686-3.149Z" transform="translate(-20.186 -20.159)"/><path class="i" d="M43.782,32.152,40.559,28.93H38.4v-.582a1.611,1.611,0,1,0-3.223,0v.582H27.849a1.611,1.611,0,1,0,0,3.223H39.932a9.854,9.854,0,0,1-3.149,6.917,9.732,9.732,0,0,1-2.7-4.261,1.612,1.612,0,0,0-3.075.967,12.939,12.939,0,0,0,3.113,5.2,21.927,21.927,0,0,1-6.615,2.613,1.612,1.612,0,1,0,.686,3.149,25.12,25.12,0,0,0,8.592-3.63,25.122,25.122,0,0,0,8.592,3.63,1.612,1.612,0,0,0,.686-3.149,21.928,21.928,0,0,1-6.619-2.615,13.093,13.093,0,0,0,3.713-8.824Z" transform="translate(-20.186 -20.159)"/><path class="j" d="M20.494,41.784V45.61a6.938,6.938,0,0,0,6.938,6.938h19.32A6.938,6.938,0,0,0,53.69,45.61V41.784Z" transform="translate(-20.494 -19.352)"/></g><g transform="translate(0 0)"><path class="k" d="M26.258,33.2H6.938A6.938,6.938,0,0,1,0,26.258V6.938A6.938,6.938,0,0,1,6.938,0h19.32A6.938,6.938,0,0,1,33.2,6.938v19.32A6.938,6.938,0,0,1,26.258,33.2Z" transform="translate(0 0)"/><path class="l" d="M0,21.29v3.826a6.938,6.938,0,0,0,6.938,6.938h19.32A6.938,6.938,0,0,0,33.2,25.116V21.29Z" transform="translate(0 1.142)"/></g><path class="m" d="M19.182,4.69H14.24L6.9,27.967l4.978,4.978H25.888a6.938,6.938,0,0,0,6.938-6.938V18.334Z" transform="translate(0.37 0.252)"/><g transform="translate(6.647 3.975)"><path class="n" d="M6.308,26.826a1.761,1.761,0,0,1,.069-.377l6.372-20.9c.377-1.2,1.918-1.781,3.494-1.781s3.117.582,3.494,1.781l6.406,20.9a1.765,1.765,0,0,1,.069.377c0,1.268-1.953,2.192-3.426,2.192-.856,0-1.542-.274-1.747-.993l-1.165-4.282H12.646l-1.165,4.282c-.206.719-.891.993-1.747.993-1.473,0-3.426-.925-3.426-2.192Zm12.435-7.194-2.5-9.181-2.5,9.181Z" transform="translate(-6.308 -3.773)"/></g></svg>