<svg xmlns="http://www.w3.org/2000/svg" width="20" height="17.938" viewBox="0 0 20 17.938"><defs><style>.a{fill:#fff;}</style></defs><path class="a" d="M15,17.938H5a2.5,2.5,0,0,1-2.5-2.5V6.924L1.323,7.78a.827.827,0,0,1-.49.16A.834.834,0,0,1,.343,6.431L8.529.478a2.5,2.5,0,0,1,2.942,0l8.185,5.953A.833.833,0,0,1,19.84,7.6a.837.837,0,0,1-.675.343.825.825,0,0,1-.489-.16L17.5,6.924v8.514A2.5,2.5,0,0,1,15,17.938ZM9.166,8.772h1.666a2.5,2.5,0,0,1,2.5,2.5v5H15a.835.835,0,0,0,.834-.834V5.712L10.49,1.825a.835.835,0,0,0-.981,0L4.166,5.712v9.726A.835.835,0,0,0,5,16.272H6.666v-5A2.5,2.5,0,0,1,9.166,8.772Zm0,1.666a.834.834,0,0,0-.834.833v5h3.334v-5a.834.834,0,0,0-.834-.833Z"/></svg>