<svg xmlns="http://www.w3.org/2000/svg" width="20" height="21.659" viewBox="0 0 20 21.659"><defs><style>.a{fill:#4e576e;opacity:0.8;}</style></defs><path class="a" d="M10,21.659c-.274,0-.544-.01-.8-.03a2.516,2.516,0,0,1-2.266-2.2l-.086-.59a1.24,1.24,0,0,0-.684-.851c-.15-.08-.3-.166-.44-.256a1.415,1.415,0,0,0-.735-.229.92.92,0,0,0-.344.063l-.556.221a2.719,2.719,0,0,1-1,.191,2.421,2.421,0,0,1-2.036-1.05,10.863,10.863,0,0,1-.809-1.4,2.512,2.512,0,0,1,.773-3.058l.471-.373a1.233,1.233,0,0,0,.4-1.016c0-.076,0-.159,0-.256s0-.18,0-.256a1.233,1.233,0,0,0-.4-1.016l-.471-.373A2.514,2.514,0,0,1,.239,6.127a10.8,10.8,0,0,1,.809-1.4,2.421,2.421,0,0,1,2.036-1.05,2.719,2.719,0,0,1,1,.191l.556.221a.92.92,0,0,0,.344.063,1.415,1.415,0,0,0,.735-.229c.142-.089.29-.175.44-.256a1.236,1.236,0,0,0,.684-.851l.086-.59A2.518,2.518,0,0,1,9.193.029C9.457.01,9.727,0,10,0s.541.01.8.029a2.516,2.516,0,0,1,2.264,2.2l.087.59a1.231,1.231,0,0,0,.683.851c.143.076.287.16.441.256a1.415,1.415,0,0,0,.735.229.924.924,0,0,0,.345-.063l.554-.221a2.724,2.724,0,0,1,1-.191,2.422,2.422,0,0,1,2.036,1.05,10.8,10.8,0,0,1,.809,1.4,2.514,2.514,0,0,1-.773,3.058l-.471.373a1.23,1.23,0,0,0-.4,1.016c0,.084,0,.17,0,.256s0,.171,0,.256a1.23,1.23,0,0,0,.4,1.016l.471.373a2.512,2.512,0,0,1,.773,3.058,10.862,10.862,0,0,1-.809,1.4,2.422,2.422,0,0,1-2.036,1.05,2.723,2.723,0,0,1-1-.191l-.554-.221a.924.924,0,0,0-.345-.063,1.415,1.415,0,0,0-.735.229c-.154.1-.3.179-.441.256a1.235,1.235,0,0,0-.683.851l-.087.59a2.513,2.513,0,0,1-2.264,2.2C10.542,21.649,10.271,21.659,10,21.659ZM4.975,15.7a3.271,3.271,0,0,1,1.695.5c.136.083.242.144.342.2a3,3,0,0,1,1.616,2.183l.086.589a.716.716,0,0,0,.611.66c.216.016.442.024.673.024s.456-.008.673-.024a.716.716,0,0,0,.611-.66l.086-.589A3,3,0,0,1,12.982,16.4c.11-.058.217-.121.343-.2a3.265,3.265,0,0,1,1.693-.5,2.7,2.7,0,0,1,1.005.192l.554.221a.888.888,0,0,0,.33.066.654.654,0,0,0,.548-.265,9.016,9.016,0,0,0,.673-1.165.71.71,0,0,0-.264-.856l-.472-.374a2.987,2.987,0,0,1-1.081-2.489l0-.2,0-.2a2.991,2.991,0,0,1,1.081-2.49l.472-.373a.711.711,0,0,0,.264-.857,9.009,9.009,0,0,0-.673-1.164.656.656,0,0,0-.549-.266.885.885,0,0,0-.328.066l-.554.222a2.709,2.709,0,0,1-1.007.192,3.256,3.256,0,0,1-1.692-.5c-.108-.065-.225-.134-.343-.2a3,3,0,0,1-1.617-2.182l-.086-.59a.713.713,0,0,0-.611-.658c-.216-.016-.442-.024-.673-.024s-.456.008-.673.024a.714.714,0,0,0-.611.658l-.086.59A2.994,2.994,0,0,1,7.012,5.26c-.1.055-.211.118-.342.2a3.262,3.262,0,0,1-1.693.5,2.714,2.714,0,0,1-1.007-.192l-.553-.222a.889.889,0,0,0-.329-.066.655.655,0,0,0-.548.266,9.019,9.019,0,0,0-.674,1.164.714.714,0,0,0,.264.857l.472.373a2.989,2.989,0,0,1,1.081,2.49l0,.2,0,.2A2.985,2.985,0,0,1,2.6,13.518l-.472.374a.713.713,0,0,0-.264.856,8.964,8.964,0,0,0,.674,1.165.654.654,0,0,0,.547.265.892.892,0,0,0,.33-.066l.553-.221A2.7,2.7,0,0,1,4.975,15.7ZM10,15.342a4.513,4.513,0,1,1,4.513-4.513A4.517,4.517,0,0,1,10,15.342Zm0-7.22A2.707,2.707,0,1,0,12.7,10.83,2.711,2.711,0,0,0,10,8.122Z" transform="translate(0.003)"/></svg>