<svg xmlns="http://www.w3.org/2000/svg" width="20" height="21.302" viewBox="0 0 20 21.302"><defs><style>.a{fill:#4e576e;opacity:0.8;}</style></defs><path class="a" d="M10,21.3a2.735,2.735,0,0,1-1.314-.338l-7.273-4A2.729,2.729,0,0,1,0,14.575V6.727a2.721,2.721,0,0,1,1.412-2.39l7.273-4a2.726,2.726,0,0,1,2.629,0l7.272,4A2.724,2.724,0,0,1,20,6.727v7.848a2.728,2.728,0,0,1-1.414,2.39l-7.272,4A2.735,2.735,0,0,1,10,21.3ZM18.182,6.8l-7.273,4.363v7.948l6.8-3.741a.91.91,0,0,0,.471-.8V6.8ZM1.818,6.8v7.772a.91.91,0,0,0,.471.8l6.8,3.741V11.165ZM10,1.817a.91.91,0,0,0-.438.113L3.128,5.468,10,9.591l6.872-4.122L10.438,1.93A.91.91,0,0,0,10,1.817Z" transform="translate(0 0)"/></svg>