<svg xmlns="http://www.w3.org/2000/svg" width="56.659" height="76.577" viewBox="0 0 56.659 76.577"><defs><style>.a{fill:transparent;}.b{fill:#ef4147;}.c{fill:#ffd51a;}.d{fill:#8074b3;}.e{fill:#50b94b;}.f{fill:#3cb1e5;}.g{opacity:0;}.h{fill:#5b5c5e;}</style></defs><g transform="translate(149.774 -66.471)"><path class="a" d="M-256.206,66.471s-5.258,0-5.258,5.07v66.436s0,5.071,5.258,5.071h46.145s5.257,0,5.257-5.071V71.541s0-5.07-5.257-5.07Z" transform="translate(111.69 0)"/><g transform="translate(-146.454 75.529)"><path class="b" d="M-223.544,95.643c.042.159.08.312.118.47.46.085.778.451,1.183.239v.116c.374.349.022.562.24.948.075.043.157.079.235.12v.115l.117-.115c.12.035.235.075.353.115a15.517,15.517,0,0,0-.233,2.72h.233c-.036.357-.075.712-.118,1.067h-.115c-.014.063.189.33.115.589h-.115v.835h-.12v.351h-.117v.948c-.077.039-.16.077-.235.12-.041.12-.081.236-.117.356h-.123c-.175.482.712.686.123.944-.142.526-.45.418-.595.944a5.2,5.2,0,0,0-1.183.244c-.039.112-.079.233-.117.352h-.83v.359c-.273.032-.554.075-.827.113v-.238a1.284,1.284,0,0,1-.472.125v.349a4.555,4.555,0,0,1-.834-.349v-.125c-.355.079-.708.157-1.065.238v-.355h.121v-.116h.236c.121-.158.24-.317.353-.476h.355v-.12h.244v-.118h.233c.036-.076.077-.155.116-.239h.24v-.11a1.194,1.194,0,0,1,.587-.354v-.241h.238c.162-.238.32-.469.474-.707.08-.038.158-.081.236-.117V104.4c.077-.035.158-.083.238-.12.035-.12.077-.237.117-.354h.118c.082-.238.159-.476.238-.713.1-.182.489-.659.353-1.063h-.115v-.239c-.08-.038-.161-.076-.238-.116-.039-.392-.079-.792-.117-1.183h.238V100.5c-.523-.247-.31-.194-.595-.593l-.355-.238V99.31h-.118c-.076-.116-.154-.234-.238-.358h-.236v-.118h-.238c-.08-.059-.093-.241-.233-.351a2.041,2.041,0,0,0,0-.831c-.12.042-.233.082-.353.12v-.12c-.206-.132-.164-.072-.24-.351-.116-.041-.237-.082-.35-.12v.12c-.137.136-.049,0-.12.236-.851,0-1.205.227-2.131.235v-.354a1.352,1.352,0,0,0-.589.12V97.3c.361-.2.473-.36.473-.948h-.124v.235c-.674-.023-.947-.214-1.059.12.13.1.015-.015.116.118H-231v-.118c-.081-.04-.158-.081-.235-.12v.238h-.477c-.039.115-.08.233-.121.355-.195-.036-.391-.075-.589-.122v.122h.121v.355c-.121-.041-.241-.076-.353-.12v.12a5.867,5.867,0,0,0-1.189,2.128v1.064h.117v-.116c.24-.2.3-.708.36-1.066h.232a15,15,0,0,0,.117,2.482c-.326-.081-.261-.032-.35-.353h-.36v-.707h-.117v.116h-.115v.477h.115v.467h.117v.123c.123-.041.24-.082.36-.123v.123c.13.133.046,0,.114.236-.114-.044-.233-.08-.351-.12v.238c.2.2.226.544.351.831h.118c.1.259-.1.32-.118.47h.118q.121.355.235.71h.245v.238c.482.131.449.359.7.707.277.241.552.474.831.706v.123h.235c-.039.116-.077.235-.116.354a3.19,3.19,0,0,1-2.6-1.653c-.123-.08-.24-.164-.355-.238v-.238l-.239-.236v-.237h-.117v-.237c-.117-.079-.24-.159-.351-.235a7.914,7.914,0,0,1-.477-3.55h.116v-.945h.12v-.593c.08-.039.157-.08.241-.118v-.948c.152-.038.312-.079.468-.116a1.7,1.7,0,0,1,.472-.831c.08-.04.159-.075.24-.116.087-.21-.081-.188-.117-.239.036-.158.072-.311.117-.47a2.616,2.616,0,0,1,.469.116v-.116h.238v-.237h.236c.145-.353.162-.514.476-.712h.233c.041-.118.082-.238.121-.353.123.04.235.077.357.115.041-.075.08-.154.121-.235h.587V94.1h.36v-.124h1.532V93.87c.28.04.557.079.83.109V94.1h.712v.118h.476v.12h.35v.115h.24v.12h.353v.118c.233.039.472.074.707.117v.12c.238.081.474.164.712.237.035.077.077.161.117.238h.357v.115c.121.04.238.081.353.122" transform="translate(253.714 -72.571)"/><path class="c" d="M-228.737,105.351h-.588V105h.116v-.118h.351c.1.136-.016.02.121.118Z" transform="translate(254.532 -71.041)"/><path class="c" d="M-228.714,93.579c.083.349.128.391.473.475v.354l-2.124.118c-.181.052-.96.423-1.19.354V94.76h-.237v-.114c-.2-.04-.393-.081-.595-.12a2.373,2.373,0,0,1-.11-.244h-.244v-.109h-.235c-.079-.12-.157-.239-.233-.359h-.237c-.043-.079-.08-.162-.123-.236h-.231c-.043-.076-.08-.157-.118-.237h-.356v-.121h-.71V93.1h-.122v.116h-.122c-.232.03-.387.038-.468-.116h-.122c-.084.069.056.489-.349.358v-.121h-.125V92.87c.17-.14.184-.216.243-.476h.231v-.236a.962.962,0,0,0,.481-.122v-.117h.468v-.114h.239v-.116h2.244v.116h.243v.114h.468c.041.081.082.159.121.239h.478c.036.081.075.161.115.236h.353c.039.081.08.162.117.235h.36c.039.083.077.162.116.241h.236c.041.079.077.153.12.235h.239c.04.081.073.163.117.237h.231v.121l.359.116" transform="translate(253.563 -72.874)"/><path class="c" d="M-222.141,102.384h.231v.47c-.289.183-.074.137-.231.354-.082.039-.164.077-.24.12-.156.192-.314.393-.477.59h-.117v.234h-.235c-.04.12-.079.241-.118.358h-.352c-.068-.259-.419-.526-.239-.945h.116c.044-.116.083-.236.123-.355.077-.042.154-.077.235-.116v-.95h.117v-.355h.118v-.472h.118c.048-.158.048-.48-.118-.473v-.12h.235v.12c.3.265.17.524.355.831.083.035.159.076.239.113v.238h.117c.041.117.077.236.123.359" transform="translate(255.275 -71.618)"/><path class="c" d="M-232.025,103.324c.232.035.47.079.7.116.092.378.18.255.236.708h.361c.1.409.239.3.351.705h.477c.1.139-.015.023.115.124.041.2.082.4.115.59.159-.036.32-.077.473-.113v.352h.36v.235h.593v.358h.114a4.242,4.242,0,0,0,2.013,1.185v.352c-.454.27-.536.744-1.181.828v-.358h-.123c-.182-.213-.232-.1-.468-.228v-.124h-.24c-.159-.2-.315-.4-.469-.588-.164-.043-.318-.083-.476-.122-.081-.154-.151-.319-.236-.472h-.233c-.043-.079-.08-.159-.125-.24-.2-.157-.392-.318-.587-.466-.37-.387-.345-.907-.95-1.073-.041-.24-.079-.472-.118-.7-.115-.042-.234-.083-.35-.122-.036-.64-.227-.468-.354-.944" transform="translate(254.156 -71.256)"/><path class="c" d="M-221.3,104.775h.355v2.489h-.121c-.043.191-.081.392-.113.588h-.122c-.041.124-.082.235-.121.353h-.235a2.633,2.633,0,0,1-2.131,1.423v.12h-.12v-.12h-1.89c.038-.2.079-.4.117-.595.323-.076.266-.151.595-.235v-.236h.232a5.464,5.464,0,0,1,.945-.828v-.12h.6c.133-.133,0-.046.234-.118-.041-.232-.076-.474-.117-.71a1.976,1.976,0,0,0,1.182-1.3h.236c.173-.292.372-.331.475-.712" transform="translate(255.022 -71.055)"/><path class="d" d="M-204.842,100.623c.074.331.265.652.354.944a13.1,13.1,0,0,1-.121,3.31c-.074.71-.155,1.421-.234,2.131h-.122v.476h-.118v.475h-.115v.47h-.119v.353h-.115v.358h-.123v.353h-.116c-.041.2-.082.4-.12.595h-.118v.237h-.117v.352h-.116c-.081.24-.157.474-.24.71h-.115v.238h-.123v.357c-.079.033-.156.079-.238.12v.238h-.118v.234h-.117v.236l-.236.236v.238c-.076.041-.153.077-.233.12v.235c-.082.039-.158.081-.241.117v.238a2.078,2.078,0,0,1-.237.116v.361l-.233.113v.244c-.318.273-.63.547-.944.82v.236c-.08.043-.162.081-.237.122v.238c-.087.04-.163.076-.24.115v.235h-.115v.241l-.47.238v.231c-.122.08-.238.162-.36.243v.235c-.435.4-.868.786-1.3,1.181v.24l-.235.116v.117c-.157.041-.321.079-.47.12-.081.115-.163.232-.246.357h-.232c-.082.116-.159.231-.234.355h-.24c-.39.434-.787.861-1.181,1.3-.205.036-.4.079-.591.114-.159.2-.318.4-.474.6h-.234l-.241.232h-.236v.12h-.235v.118h-.241v.116h-.236c-.081.122-.159.238-.232.353h-.238l-.239.235h-.235v.124h-.241c-.038.079-.075.161-.113.231h-.239v.122c-.155.042-.319.081-.473.122v.114c-.236.039-.474.085-.707.118v.122h-.236v.11h-.355v.123h-.354v.124h-.358v.114h-.475v.116h-.243v.122h-.469c-.041.073-.08.154-.116.233h-.47v.124c-.4.036-.79.076-1.189.113v.241c-1.317-.049-2.17-1.382-3.309-1.662v-.358h.71v-.114h.233v-.117h1.186v-.124h.116v.124h.239v-.235a3.608,3.608,0,0,0,1.417-.239v-.116h.238v-.122h.829c.036-.079.075-.154.116-.235h.355a2.487,2.487,0,0,0,.114-.237c.243-.035.478-.077.718-.115v-.125h.236v-.116h.235v-.117c.242-.081.475-.157.707-.238v-.114l.712-.121v-.115c.161-.043.312-.081.479-.124.08-.12.153-.232.232-.354.234-.076.475-.154.71-.232.043-.081.077-.161.121-.241h.235c.083-.114.161-.238.231-.353h.244c.038-.074.08-.158.115-.24.161-.034.318-.079.476-.117.121-.156.236-.31.353-.468h.234c.082-.122.164-.24.24-.356h.238c.081-.122.16-.236.234-.355h.238c.157-.194.321-.4.474-.593h.236c.159-.2.321-.4.475-.593h.236c.039-.112.079-.231.117-.354.16-.115.317-.235.47-.357v-.235c.364-.312.711-.629,1.07-.945v-.236c.079-.039.156-.076.232-.116v-.125a4.149,4.149,0,0,0,.36-.235v-.23c.115-.082.232-.162.355-.243v-.235c.08-.043.164-.082.237-.116.038-.122.079-.239.116-.359h.122v-.235a2.2,2.2,0,0,1,.238-.116v-.241c.079-.038.155-.079.232-.116v-.236c.08-.043.158-.084.238-.124v-.231l.234-.116c.073-.238.158-.476.24-.714h.118c.035-.115.082-.236.117-.35.077-.044.156-.079.236-.12.041-.158.074-.319.12-.476.075-.043.154-.076.232-.116v-.474h.12v-.358h.12v-.232h.122c.035-.243.076-.478.112-.707h.121c.043-.167.082-.32.116-.48h.122v-.232h.12V107.6h.122v-.237h.112c.08-.236.162-.473.236-.71h.117c.047-.237.083-.472.118-.711h.117c.082-.236.161-.474.244-.714h.115V105h.116v-.354h.124v-.236h.116v-.476h.117V103.7h.118v-.711h.12v-.238h.116v-.826s.076-.019.123-.236c.319-.091.263-.038.349-.36-.489-.352-.011-.18-.115-.592l-.119-.114Z" transform="translate(254.776 -71.632)"/><path class="d" d="M-251.1,101.243c.384.09.432.161.474.595h-.114c.032.233.072.474.114.711h-.236c.04.2.081.39.122.588h.114v.944h.12v1.3h.117v.238c.124.042.237.079.352.123a3.191,3.191,0,0,0,0,1.418c.417.09.464.212.476.711h-.359c.043.155.084.313.124.47h.353a.949.949,0,0,0,.235.71h.124c.033.158.074.317.115.47h.117v.715h.121v.235c.081.039.162.077.232.117v.239h.124v.47c.112.079.233.157.355.238v.476h.115v.238c.08.035.158.08.239.109v.243c.157.117.314.234.472.353.038.2.076.4.116.592.12.039.234.08.36.117.158.15.1.413.117.715.554.145.39.42,1.18.465.079.4.159.794.236,1.189.3.071.2.06.358.233h.117v.235h.12a.941.941,0,0,1,.234.48H-244v.12h.122v.354c.235.075.473.154.71.233v.358h.117v.109c.195.043.39.085.595.125.074.117.154.238.232.352h.238l.236.238v.239c.093.12.357.208.477.354h.47v.232h.355v.24c.4.1.308.246.7.353v.241h.358c.084.157.18.15.238.232.251.36.1.456.712.478v.115h.354c-.04.121-.082.235-.118.352.2-.038.393-.079.587-.117v.117h.241c.041.081.079.162.112.238h.359v.116h.241v.125h.589c.041.079.081.151.122.232.2.041.392.079.588.12.039.081.081.156.118.235.318.038.631.079.945.122a2.446,2.446,0,0,1,.117.231.29.29,0,0,0,.356-.115c.32.035.636.074.95.115v-.115h.711v.115h.235v.124h.712v.111h.352v.124h.48a2.064,2.064,0,0,0,.11.231h2.606c.195.244.4.476.592.708h.24c.034.082.074.164.115.247h.232c.081.114.161.23.244.352h.233c.04.073.081.154.121.233.355.2.71.4,1.066.592v.352h-1.542a5.69,5.69,0,0,1-1.181.246v-.128h-1.418v-.118h-.953v-.113h-.466v-.12h-.362v-.12h-.469v-.114l-1.657-.122v-.12h-.244v-.113c-.352-.039-.706-.081-1.063-.124v-.115h-.349v-.118h-.356c-.04-.079-.079-.159-.12-.238h-.595v-.114c-.2-.044-.391-.083-.589-.124v-.123c-.158-.032-.313-.072-.472-.11V124.2h-.355v-.118c-.245-.076-.474-.155-.711-.236v-.122h-.238v-.114h-.355c-.036-.079-.077-.157-.116-.241-.161-.032-.317-.073-.476-.111-.195-.239-.394-.477-.589-.712-.429-.244-.394.308-.591-.352-.267-.035-.316-.015-.475-.125v-.116h-.236c-.04-.076-.079-.157-.12-.238-.159-.038-.318-.079-.472-.117-.117-.156-.237-.313-.357-.474h-.236c-.038-.081-.076-.159-.118-.232h-.238c-.073-.122-.155-.241-.235-.354-.2-.161-.4-.318-.591-.48-.039-.071-.08-.154-.12-.232h-.235c-.2-.24-.4-.475-.593-.71h-.239c-.154-.2-.313-.4-.47-.591-.079-.043-.159-.081-.241-.121v-.243c-.116-.071-.23-.154-.352-.233v-.233c-.314-.233-.632-.477-.947-.707-.039-.157-.077-.318-.118-.48-.074-.032-.154-.076-.232-.114v-.236c-.083-.04-.16-.077-.24-.118v-.241c-.079-.032-.159-.073-.236-.11v-.246c-.084-.034-.157-.074-.236-.114v-.352c-.079-.039-.16-.084-.236-.125v-.235l-.354-.23c-.039-.2-.082-.4-.122-.593-.077-.042-.155-.076-.233-.122-.044-.117-.083-.237-.124-.352h-.114c-.08-.236-.157-.477-.239-.711-.083-.04-.158-.081-.232-.118v-.234h-.124v-.476h-.116c-.038-.154-.079-.319-.118-.476h-.118v-.236h-.115v-.235h-.12v-.239h-.124v-.236h-.117v-.236h-.115v-.712h-.113c-.047-.157-.088-.312-.124-.476h-.117v-.464h-.12v-.362h-.114v-.472h-.122v-.592h-.123V106.8h-.115v-1.662a5.094,5.094,0,0,1-.237-1.652c.039-.277.077-.554.118-.827h-.118v-.353c-.024-.17-.1.046-.115-.123.072-.038.154-.079.234-.117a1.829,1.829,0,0,0,.118-.828" transform="translate(251.455 -71.546)"/><path class="e" d="M-214.25,89.265c.041.157.08.317.118.474.08.041.154.081.238.12.039.156.081.314.115.468h.118v.357h.121v.237h.112c.082.511.159,1.029.243,1.535h.116a8.883,8.883,0,0,1-.116,2.843v.592h-.12c-.041.314-.076.634-.123.945h-.112v.355h-.121v.357h-.118v.475h-.115c-.043.159-.084.311-.123.47h-.115c-.039.238-.077.474-.118.712h-.12v.236h-.118c-.076.235-.159.476-.24.71h-.11v.236a4.3,4.3,0,0,0-.6,1.186h-.239v.234h-.232c-.2.978-1.055,1.6-1.308,2.49h-.233a1.41,1.41,0,0,1-.355.707h-.118c-.262.386-.007.56-.59.712-.1.4-.244.3-.36.711h-.232a.925.925,0,0,1-.234.465h-.12v.478a1.35,1.35,0,0,1-.832.591,1.467,1.467,0,0,1-.478.829c-.113.042-.236.076-.351.121v.236l-.233.236h-.237l-.234.239c-.271.352-.182.566-.712.7-.157.566-.433.435-.831.712-.079.118-.158.235-.232.36-.121.035-.238.071-.359.116-.041.116-.08.236-.118.354h-.473c-.077.12-.157.236-.231.353-.125.04-.24.079-.361.118-.039.082-.08.158-.118.239a1.951,1.951,0,0,1-.824.47v.238h-.36c-.112.211-.162.187-.232.475h-.592V114a1.31,1.31,0,0,0-.6.352v.118h-.351v.116c-.115.043-.238.082-.359.12v.238h-.473v.235c-.467.056-.417.2-.943.237v.238c-.272.03-.31.015-.476.116v.118h-.352a2.642,2.642,0,0,0-.117.243h-.238c-.042.073-.083.151-.122.23h-.355a1.671,1.671,0,0,1-.117.235h-.472v.125a2.113,2.113,0,0,1-.83.116v.236c-.85-.006-1.074.218-1.891.235v-.235c-.4-.091-.547-.253-.6-.712h-.237c-.04-.157-.076-.312-.117-.473h-.232v-.235h-.241c-.035-.159-.08-.317-.118-.475.2-.039.4-.074.592-.115v-.12h1.538c.041-.083.083-.157.123-.238h.355v-.12h.233v-.116h.358v-.118h.233v-.117h.237c.041-.084.076-.154.116-.235h.357c.044-.082.083-.163.121-.238h.357c.038-.085.08-.157.115-.237h.595c.041-.081.08-.162.121-.238h.351v-.122c.117-.038.236-.081.361-.116.03-.077.069-.155.109-.236.241-.041.477-.077.713-.114.079-.121.163-.246.241-.36h.23c.046-.079.081-.157.124-.236h.234v-.116c.173-.12.293-.1.592-.12.129-.467.039-.154.353-.354V111.4h.236c.04-.081.08-.161.121-.241.3-.281.558-.65,1.065-.712v-.228h.239c.036-.124.08-.243.117-.362h.12v-.232c.075.034.155.074.234.115v-.115h.234c.238-.283.474-.558.712-.831h.236c.077-.12.158-.237.238-.353h.236c.082-.121.159-.233.238-.358h.121v-.235c.074-.04.154-.079.232-.117a3.156,3.156,0,0,0,.831-1.067h.235v-.234h.236v-.241h.241c-.042-.116-.082-.237-.118-.356.076.044.154.08.233.12v-.232h.118a1.677,1.677,0,0,0,.47-.712h.238v-.236h.239v-.357c.084-.054.657-.413.706-.475V103.7c.08-.042.158-.075.244-.115.031-.163.068-.318.112-.475.081-.046.161-.081.241-.12v-.24c.118-.075.234-.154.357-.232.071-.234.15-.475.236-.712h.233c.12-.629.467-.752.708-1.181v-.238h.123v-.236l.232-.233v-.241c.079-.039.159-.077.233-.118v-.352c.08-.038.162-.079.241-.118v-.239h.113c.041-.157.082-.314.122-.474h.122v-.351h.117v-.24h.117c.082-.235.161-.473.231-.707h.122l-.122-.239h.122c.044-.238.081-.47.122-.707h.114v-.474h.118v-.238h.123c.077-.392.156-.785.235-1.183h.122V94h.114V93.29h.118v-.476h.123v-.705h.11a2.011,2.011,0,0,0-.233-1.3v-.592h-.118v-.241h-.114c.033-.232.074-.468.114-.706a.8.8,0,0,1-.593-.47c.139-.1.023.008.123-.123.235.041.47.08.712.123v.116a1.48,1.48,0,0,0,.589.354" transform="translate(253.534 -73.293)"/><path class="e" d="M-234.9,95.01h.468c-.032.161-.071.314-.11.475h-.241v.355h-.116v.115h-.354c-.041.116-.081.24-.116.356-.124-.04-.241-.075-.36-.116-.031.637-.22.464-.357.948-.394.116-.224.142-.47.35v.12h-.233c-.147.56-.534.448-.356,1.064-.116.041-.238.081-.355.118-.04.081-.077.158-.115.241-.367.253-.447.088-.477.707.137.131.047,0,.121.236-.207.026-.241.118-.241.118-.156-.041-.314-.079-.47-.118v.118h-.117c.038.2.08.4.117.593h-.241a4.927,4.927,0,0,1-.235.945c-.21.114-.183.162-.472.232a3.035,3.035,0,0,1-.353.95h-.118v.359c-.121.073-.235.153-.357.237v.234h-.116v.238h-.122v.472c-.076.041-.152.081-.232.122a1.959,1.959,0,0,0-.125.825h-.349v-.116h-.121v-.354c-.074-.041-.151-.079-.235-.122a1.733,1.733,0,0,1-.233-.944h.114v-.353h.12a3.092,3.092,0,0,0,.355-.947h.232c.148-.7.669-1.075.834-1.777h.353c.071-.738.555-.767.708-1.421h.238c.039-.155.082-.317.113-.475h.241c.041-.157.079-.317.112-.47h.245c.114-.159.235-.319.355-.474h.236c.039-.084.077-.157.121-.238h.115v-.234h.117v-.236c.122-.083.238-.156.356-.241v-.235c.353-.2.71-.4,1.063-.6v-.353c.236-.04.472-.074.712-.116v-.117c.132-.138.047,0,.116-.237h.238Z" transform="translate(252.77 -72.412)"/><path class="e" d="M-243.1,105.5h.236c.073.235.157.472.239.708h.117v.237c.121.076.237.156.353.236.039.159.075.313.118.478h.12c.041.312.082.626.122.94a.317.317,0,0,0-.122.358h.122v.354h.114v1.3c.079.044.159.084.238.125.155.47.312.947.469,1.421h.241v.47c.148.079.159.187.232.236h.238c.081.122.159.238.236.358h.357v.114h.355c.036.079.079.159.118.238.09.035.96.1,1.066.122.04.116.082.232.114.351h.241c.035.161.074.316.118.473h.238c.082.405.255.552.354.946h.235v.477c-.195-.04-.394-.079-.589-.12v.12h-.477c-.038-.079-.079-.162-.121-.241h-.825c-.041-.073-.081-.154-.122-.236h-.707c-.041-.075-.08-.156-.117-.235h-.353c-.041-.079-.081-.159-.122-.236h-.353c-.036-.076-.083-.156-.117-.241h-.241v-.109c-.173-.164-.158-.067-.232-.355h-.237c-.035-.163-.079-.317-.118-.477a2.062,2.062,0,0,1-1.064-1.419h-.239c-.117-.473-.236-.948-.354-1.421h-.12v-1.183h-.117v-2.125h.117v-.358h.12v-.357h.118v-.474h-.118c.042-.159.081-.316.118-.472" transform="translate(252.567 -70.953)"/><path class="f" d="M-229.539,77.533v.235c.121.039.238.08.355.123v.116h.235v.116h.236c.076.122.158.24.241.355h.235c.039.083.08.158.117.232h.236c.04.084.079.163.124.246h.232c.041.076.082.157.115.232a1.68,1.68,0,0,0,.833.475V79.9a1.892,1.892,0,0,1,.948.6c.033.076.079.155.112.233h.245c.072.116.153.24.235.355h.232c.041.073.079.157.122.238h.239c.116.2.237.392.35.588h.238c.043.081.082.163.116.238h.238c.043.075.076.159.12.24h.116v.231h.124v.238h.114c.04.079.079.157.117.241h.238c.313.354.633.7.944,1.066.28.192.555.39.831.585.038.159.074.316.115.47q.473.417.949.831v.239c.194.156.4.315.59.473.042.12.083.236.114.352.243.2.478.4.717.592.032.161.075.316.114.474.2.156.4.319.6.477.074.233.155.466.233.706.122.079.232.158.358.239v.59h.234a1.386,1.386,0,0,0,.353.593h.121v.354c.191.157.4.317.591.474.041.161.077.312.121.474.075.038.153.076.232.114v.355c.083.042.162.081.233.122.042.2.083.4.123.587h.121v.241c.195.157.4.317.589.475v.59h.121c.039.316.08.632.115.942-.192-.035-.4-.076-.59-.115-.04-.235-.081-.476-.116-.711h-.118c-.219-.289-.286-.245-.355-.706.131-.138.047-.006.112-.239-.621-.181-.626-.6-.943-1.064-.081-.041-.158-.08-.235-.122-.041-.153-.082-.315-.121-.469h-.115c-.042-.121-.08-.243-.117-.354-.081-.039-.163-.079-.236-.12-.043-.157-.08-.317-.118-.474-.125-.077-.236-.157-.358-.236-.1-.148-.088-.5-.233-.595-.2-.039-.4-.08-.6-.117-.114-.358-.235-.71-.353-1.07h-.113c-.115-.159-.088-.2-.123-.466-.117-.042-.243-.079-.357-.12v-.122c-.435-.228-.544.125-.708-.468h-.117V87.6h.236v-.122a.552.552,0,0,1-.352-.474h-.6c-.041-.157-.077-.318-.115-.474a2.473,2.473,0,0,1-1.657-1.652h-.238v-.244h-.236v-.118c-.238-.2-.474-.391-.712-.591v-.233a2.177,2.177,0,0,1-.828-.473v-.239h-.115c-.081-.118-.159-.235-.234-.357h-.244c-.08-.114-.156-.231-.232-.353h-.236c-.039-.08-.083-.159-.121-.235h-.234c-.2-.244-.4-.477-.593-.71h-.238V81.2c-.464-.21-.4.273-.595-.358h-.23v-.35c-.241-.083-.477-.158-.713-.238v-.122h-.476c-.352-.116-.707-.236-1.063-.357-.162-.344-.371-.442-.476-.821-.76-.089-1.073-.609-1.656-.834-.321-.124-.571.025-.821-.116-.043-.076-.084-.159-.124-.239h-.829v-.116c-.154-.042-.317-.073-.474-.118v-.12h-.949V77.3h-1.06v-.116h-.355V77.06a3.217,3.217,0,0,0-1.776.238H-239.6a8.467,8.467,0,0,1-2.01.47c-.115.4-.148.226-.353.477h-.121v.233h-.354a5.827,5.827,0,0,1-.948,1.186c-.117.076-.235.154-.354.235-.155.236.026.541-.117.829-.161.116-.321.24-.473.355-.081.238-.162.47-.238.7-.077.04-.157.085-.239.122v.6h-.116v.236h-.117V83.1h-.12v.232h-.117V83.8h-.116c.038.2.079.4.116.6-.038,1.145-.079,2.284-.116,3.43h-.125v.477h-.116v.706h-.114a2.387,2.387,0,0,0,.23,1.064v1.417h.125V92.2h.116v.829h.117v.476h.12c.08.866.158,1.736.234,2.6h.123v.468h.116v.477h.116v.476h.122c.035.4.079.789.112,1.181h.123v.239c.077.041.156.077.238.116v.59h.117v.477h.12v.235h.117c.035.32.076.632.117.948.077.041.156.076.233.115.082.392.163.789.244,1.188h.114v.233h.118v.24h.12v.232h.118c.077.239.159.48.236.712h.118v.588h.121v.24c.081.039.155.074.238.12.033.2.073.391.115.59h.117v.236c.074.041.159.077.238.123v.352c.082.04.157.081.236.118v.474h.118a4.724,4.724,0,0,1,.356.943h.232c.081.238.159.48.241.712h.116v.232h.116c.041.239.08.477.121.713h.117c.041.162.08.316.121.474h.115v.238c.08.036.159.079.239.12v.235c.075.041.161.081.237.12.039.156.08.314.116.472.08.038.156.077.238.12.041.2.077.394.117.592.08.04.157.075.238.117a1.373,1.373,0,0,1,.237.589h.229a1.577,1.577,0,0,0,.359.716h.121c.079.233.156.472.239.707.117.077.238.157.353.236v.239c.117.075.239.157.355.235.035.158.08.314.118.474.115.083.238.157.353.238.081.237.162.475.236.71h.24c.148.593.559.731.7,1.419h.241v.233h.232c.041.161.084.317.122.474h.236c.071.416.2.613.591.712v.233c.353.083.394.139.472.477h.24c.036.158.075.316.118.468h.239v.243h.232c.043.159.079.317.122.468h.237v.243a1.682,1.682,0,0,1,.823.944h.243v.235h.235v.238h.232v.239h.245v.235h.232v.233h.238c.2.241.392.474.588.712h.241v.117c.079.043.154.082.235.124v.232a4.144,4.144,0,0,1,1.183.945c.041.081.084.161.114.238h.244c.073.116.154.241.234.355h.232v.118a1.052,1.052,0,0,0,.477.237v.238a1.178,1.178,0,0,1,.589.356v.109h.244a2.622,2.622,0,0,0,.112.243c.314.082.629.158.949.236.043.081.082.158.116.236h.238c.043.084.076.161.12.239.159.04.316.08.472.11.041.083.08.165.118.247h.238v.115h.236v.116h.238c.041.082.076.159.12.239h.232v.116c.325.2.225-.108.354.355.268.032.316.008.477.122v.114h.235v.121h.236c.044.079.083.163.123.232h.235c.041.085.076.165.117.245h.353a2.331,2.331,0,0,1,.117.232h.352v.118c.161.044.32.076.478.116v.123h.353v.116c.159.046.313.075.477.118v.12h.354v.118h.358v.115h.234v.122h.353v.113h.833a6.916,6.916,0,0,0,2.363.122v-.122c.4.043.793.079,1.185.122.033-.079.076-.154.117-.235a1.546,1.546,0,0,1,.943-.355c.107.14-.017.015.123.118v.35h-.235c-.046.122-.081.241-.122.354-.1.052-.4.08-.477.121-.03.075-.076.159-.112.243h-.353c-.043.072-.084.155-.123.236h-.354v.116h-.235v.117h-.475v.12h-.355v.121h-.947v.112a7.6,7.6,0,0,1-2.489-.112h-.942v-.121h-.475v-.12h-.714v-.117h-.233v-.116h-.47v-.12h-.358v-.116h-.47v-.122h-.234v-.121h-.478v-.121a1.164,1.164,0,0,0-.59-.113v-.241a1.061,1.061,0,0,1-.593-.113v-.122h-.35l-.124-.233h-.355c-.038-.083-.079-.163-.118-.238h-.233c-.039-.076-.08-.159-.121-.239h-.35c-.047-.072-.081-.154-.124-.235h-.237c-.038-.081-.081-.157-.112-.232-.355-.126-.712-.245-1.066-.358-.046-.08-.083-.161-.122-.24h-.233v-.114c-.121-.041-.238-.08-.354-.122v-.231h-.358c-.415-.68-1.663-.909-1.778-1.779-.563-.148-.5-.556-1.063-.708v-.238c-.349-.083-.386-.134-.476-.469h-.235a2.17,2.17,0,0,0-.121-.241c-.112-.077-.235-.157-.355-.238V125.1c-.117-.081-.236-.159-.353-.236-.253-.355-.221-.576-.706-.71v-.241h-.239v-.238c-.235-.154-.468-.313-.71-.474-.273-.354-.175-.563-.712-.707v-.238h-.236c-.1-.4-.239-.308-.354-.712h-.241c-.032-.151-.073-.313-.116-.467h-.231v-.243h-.244c-.205-.781-.978-1-1.177-1.89h-.239c.038-.079.08-.159.117-.236h-.232c-.043-.156-.082-.313-.121-.476h-.236c-.113-.427-.364-.476-.473-.945h-.239a2.169,2.169,0,0,0-.71-1.064c-.082-.039-.158-.081-.238-.117a3.24,3.24,0,0,1-.473-1.186h-.235a1.44,1.44,0,0,0-.359-.71h-.116v-.236l-.241-.236v-.238c-.073-.036-.151-.075-.232-.117v-.24c-.084-.036-.157-.075-.238-.116v-.354h-.115c-.035-.122-.079-.235-.12-.358-.078-.038-.159-.079-.234-.118q-.241-.646-.476-1.3c-.082-.038-.156-.08-.237-.116v-.239c-.079-.04-.157-.076-.237-.118v-.236c-.077-.038-.156-.08-.236-.113v-.359c-.083.035-.156.075-.237.116v-.468h-.12v-.244h-.118v-.358h-.114c-.041-.152-.081-.313-.121-.465h-.123c-.033-.161-.077-.32-.11-.48h-.123c-.041-.155-.082-.311-.117-.469h-.117V107h-.12v-.355h-.117c-.04-.158-.082-.317-.117-.472h-.121c-.083-.36-.156-.711-.235-1.068-.122-.082-.238-.163-.354-.237v-.356h-.123v-.236h-.116c-.081-.355-.158-.708-.237-1.064h-.117v-.24h-.116v-.35h-.125v-.236h-.116v-.476h-.114v-.591h-.122v-.236c-.081-.038-.154-.08-.235-.118.04-.12.081-.24.115-.355-.075-.041-.156-.084-.232-.118-.075-.431-.156-.87-.238-1.3h-.122c-.039-.157-.076-.313-.114-.474h-.121v-.592h-.118v-.589h-.115v-.357h-.118c-.043-.393-.082-.79-.125-1.18h-.114v-.48h-.12v-.591h-.117v-.47h-.115v-.47h-.121v-.362H-248V92.09h-.115c-.041-.911-.08-1.817-.12-2.724h.12V88.182H-248c-.038-.232-.076-.474-.115-.708H-248V86.409c.077-.754.159-1.5.241-2.244h.115v-.477h.117v-.473h.12v-.474l.239-.122c.039-.312.08-.629.118-.943h.115c.08-.238.158-.474.239-.707h.114v-.24h.122v-.233h.114c.049-.158.084-.321.124-.476.076-.038.157-.081.232-.12.039-.158.079-.313.12-.476.077-.034.159-.076.236-.113v-.237c.077-.04.159-.079.241-.116v-.246c.191-.149.39-.312.587-.466v-.238h.123c.039-.076.079-.159.116-.239h.238c.139-.525.412-.472.827-.708v-.113h.24v-.125h.234V76.7h.235v-.115h.238c.041-.082.081-.161.118-.241.118-.036.236-.076.354-.117v-.116c.237-.041.474-.082.708-.116V75.88h.241v-.12c.274-.043.549-.082.822-.124v-.114c.276-.036.554-.079.833-.12v-.12h1.413V75.17c.712.075,1.425.15,2.137.232v.12h1.059v.114h.477v.124h.469v.12h.6V76h.353v.116h.233v.116c.24.041.478.081.712.117.041.081.082.159.118.241.159.038.318.072.474.115.04.079.079.159.117.243h.236v.113h.355v.122h.243V77.3h.589c.039.081.076.157.123.236Z" transform="translate(251.902 -75.17)"/></g><g class="g" transform="translate(-136.009 126.573)"><rect width="1.007" height="1.01" transform="translate(1.078)"/><rect class="h" width="1.007" height="1.01" transform="translate(2.584)"/><g transform="translate(0 1.511)"><path class="h" d="M-221.794,139.678s1.031,3.606-3.152,4.216c0,0,5.046,1.2,5.046-4.295" transform="translate(243.586 -136.32)"/><path class="h" d="M-221.057,138.319a1.135,1.135,0,0,1-1.131,1.134,1.136,1.136,0,0,1-1.132-1.134,1.133,1.133,0,0,1,1.132-1.13,1.133,1.133,0,0,1,1.131,1.13m1.2.975v-2.342a.948.948,0,0,0-.967-.968h-2.734a.949.949,0,0,0-.969.968v2.732a.946.946,0,0,0,.969.965h2.734a1.878,1.878,0,0,1,.829-1.011l.107-.146Z" transform="translate(243.539 -135.913)"/><path class="h" d="M-231.806,138.358a1.038,1.038,0,0,1-1.049,1.1,1.134,1.134,0,0,1-1.131-1.134,1.131,1.131,0,0,1,1.131-1.135,1.1,1.1,0,0,1,1.049,1.169m1.286,1.332v-2.737a1.875,1.875,0,0,1-1.021-.824l-.143-.108-.194-.033h-2.348a.942.942,0,0,0-.96.965v2.737a.945.945,0,0,0,.96.967h2.738a.949.949,0,0,0,.969-.967" transform="translate(244.74 -135.913)"/><path class="h" d="M-214.309,138.237a1.132,1.132,0,0,1-1.131,1.134,1.138,1.138,0,0,1-1.133-1.134,1.132,1.132,0,0,1,1.133-1.13,1.126,1.126,0,0,1,1.131,1.13m1.2,1.365v-2.733a.944.944,0,0,0-.963-.965H-216.8a.949.949,0,0,0-.971.965V139.6a.951.951,0,0,0,.971.972h2.734a.946.946,0,0,0,.963-.972" transform="translate(242.779 -135.904)"/><rect class="h" width="3.43" height="1.497" transform="translate(23.073 3.141)"/><rect class="h" width="1.212" height="3.433" transform="translate(6.993 1.252)"/><rect class="h" width="9.98" height="1.212" transform="translate(2.698 3.524)"/><path class="h" d="M-242.485,138.32a1.135,1.135,0,0,1-1.136,1.134,1.133,1.133,0,0,1-1.129-1.134,1.13,1.13,0,0,1,1.129-1.13,1.132,1.132,0,0,1,1.136,1.13m1.2,1.366v-2.732a.949.949,0,0,0-.967-.969h-2.734a.948.948,0,0,0-.967.969v2.732a.946.946,0,0,0,.967.965h2.734a.947.947,0,0,0,.967-.965" transform="translate(245.952 -135.913)"/><rect class="h" width="0.819" height="0.823" transform="translate(6.229 5.241)"/><rect class="h" width="9.547" height="1.212" transform="translate(7.501 3.524)"/><path class="h" d="M-227.353,140.65h.132c.149-1.176.212-4.662-4.36-4.662l.079,1.893a3.244,3.244,0,0,1,4.148,2.769" transform="translate(244.334 -135.913)"/></g></g></g></svg>