<svg xmlns="http://www.w3.org/2000/svg" width="91" height="90" viewBox="0 0 91 90"><defs><style>.a{fill:none;}.b,.c{fill:#6c5dd2;}.b{fill-rule:evenodd;}</style></defs><g transform="translate(-0.228 0.122)"><g transform="translate(0 0)"><rect class="a" width="91" height="90" transform="translate(0.228 -0.122)"/></g><g transform="translate(6.407 10.448)"><path class="b" d="M71.8,3H9.755A7.778,7.778,0,0,0,2,10.755V65.043A7.778,7.778,0,0,0,9.755,72.8H71.8a7.778,7.778,0,0,0,7.755-7.755V10.755A7.778,7.778,0,0,0,71.8,3Zm0,62.043H9.755V10.755H71.8Z" transform="translate(-2 -3)"/><path class="b" d="M40.734,14.506,35.228,9,22.935,21.292l-5.468-5.506L12,21.254,22.935,32.266Z" transform="translate(26.777 14.266)"/><rect class="c" width="17" height="8" transform="translate(12.821 14.43)"/><rect class="c" width="17" height="8" transform="translate(12.821 30.43)"/><rect class="c" width="17" height="7" transform="translate(12.821 47.43)"/></g></g></svg>